<?xml version="1.0" encoding="UTF-8"?>
<!DOCTYPE svg PUBLIC "-//W3C//DTD SVG 1.1//EN" "http://www.w3.org/Graphics/SVG/1.1/DTD/svg11.dtd">
<svg version="1.1" xmlns="http://www.w3.org/2000/svg" xmlns:xlink="http://www.w3.org/1999/xlink" x="0px" y="0px" width="128" height="128" viewBox="0, 0, 128, 128">
  <g id="Background">
    <rect x="0" y="0" width="128" height="128" fill="#000000" fill-opacity="0"/>
  </g>
  <g id="Background">
    <path d="M18.093,6 L109.907,6 C116.561,6 122,11.439 122,18.093 L122,109.907 C122,116.561 116.561,122 109.907,122 L18.093,122 C11.439,122 6,116.561 6,109.907 L6,18.093 C6,11.439 11.439,6 18.093,6" fill="#727272"/>
    <path d="M75.742,70.179 L80.78,58.26 L86.936,43.466 L107.998,43.466 L85.502,87.327 L85.502,114.963 L65.471,114.963 L65.471,87.327 L52.529,62.817 L41.116,82.428 L19.848,82.428 L42.774,47.696 L21.112,14.521 L42.385,14.521 L52.236,32.379 L62.188,14.521 L83.456,14.521 L64.425,43.668 L75.336,70.179 z" fill="#84D0F4"/>
  </g>
  <defs/>
</svg>
